<?xml version="1.0" encoding="UTF-8" standalone="no"?>
<!-- Created with Inkscape (http://www.inkscape.org/) -->

<svg
   xmlns:dc="http://purl.org/dc/elements/1.1/"
   xmlns:cc="http://creativecommons.org/ns#"
   xmlns:rdf="http://www.w3.org/1999/02/22-rdf-syntax-ns#"
   xmlns:svg="http://www.w3.org/2000/svg"
   xmlns="http://www.w3.org/2000/svg"
   xmlns:sodipodi="http://sodipodi.sourceforge.net/DTD/sodipodi-0.dtd"
   xmlns:inkscape="http://www.inkscape.org/namespaces/inkscape"
   width="1024"
   height="500"
   viewBox="0 0 1024 499.99998"
   id="svg2"
   version="1.1"
   inkscape:version="0.91 r13725"
   sodipodi:docname="featured_1024x500.svg">
  <defs
     id="defs4" />
  <sodipodi:namedview
     id="base"
     pagecolor="#ffffff"
     bordercolor="#666666"
     borderopacity="1.0"
     inkscape:pageopacity="0.0"
     inkscape:pageshadow="2"
     inkscape:zoom="0.35"
     inkscape:cx="278.32007"
     inkscape:cy="301.92214"
     inkscape:document-units="px"
     inkscape:current-layer="layer1"
     showgrid="false"
     inkscape:window-width="1920"
     inkscape:window-height="1017"
     inkscape:window-x="-8"
     inkscape:window-y="-8"
     inkscape:window-maximized="1"
     units="px" />
  <metadata
     id="metadata7">
    <rdf:RDF>
      <cc:Work
         rdf:about="">
        <dc:format>image/svg+xml</dc:format>
        <dc:type
           rdf:resource="http://purl.org/dc/dcmitype/StillImage" />
        <dc:title></dc:title>
      </cc:Work>
    </rdf:RDF>
  </metadata>
  <g
     inkscape:label="Layer 1"
     inkscape:groupmode="layer"
     id="layer1"
     transform="translate(0,-552.36225)"
     style="opacity:0.98999999">
    <g
       transform="matrix(7.2659523,0,0,7.2659523,-2275.9021,-586.84498)"
       inkscape:label="Layer 1"
       id="layer1-3">
      <g
         id="g3743">
        <path
           inkscape:connector-curvature="0"
           sodipodi:nodetypes="ccccccc"
           d="m 393.74,199.09 c -2.789,2.549 -9.7761,13.683 -12.439,15.652 -13.633,-0.19174 -19.042,-1.6758 -33.002,-2.4627 -3.475,-1.285 -5.8077,-17.685 -5.8977,-21.377 4.646,-2.768 16.253,-10.699 20.975,-13.393 7.5588,-1.1798 13.049,0.1724 19.749,-0.33161 3.9232,2.6648 8.6486,17.286 10.615,21.912 z"
           style="clip-rule:evenodd;fill:#5b012c;fill-rule:evenodd"
           id="path3327" />
        <path
           d="m 368.94,172.16 c -0.48275,3.7e-4 -0.9635,0.20025 -1.5,0.84375 -1.072,1.287 -10.927,5.1495 -12,6.4375 -1.073,1.287 -5.3768,3.8692 -7.0938,5.1562 -1.717,1.287 -6,3.6562 -6,3.6562 l -1.2812,1.0625 c 0,0 -0.86825,6.6438 -0.65625,9.2188 0.217,2.574 2.1372,10.526 2.7812,11.812 0.644,1.287 2.584,6.8472 6.875,8.7812 4.293,1.93 12.866,3.0058 15.656,3.2188 2.789,0.217 11.814,-0.63725 13.531,-1.2812 1.715,-0.643 9.2348,-6.4318 10.094,-7.7188 0.859,-1.287 4.7225,-5.5762 4.9375,-9.6562 0.213,-4.074 1.2278,-5.942 0.71875,-8.125 -0.514,-2.186 -5.875,-16.562 -5.875,-18.062 0,-1.504 -1.516,-3.1998 -2.375,-3.8438 -0.857,-0.643 -1.713,-1.3002 -3,-0.65625 -1.287,0.643 -3.445,0.8495 -5.375,1.0625 -1.932,0.217 -6.8635,-1.07 -7.9375,-1.5 -0.5365,-0.215 -1.0172,-0.40662 -1.5,-0.40625 z m -7.625,11.375 c 4.271,3.752 13.999,4.6425 21,3.6875 2.894,3.694 3.5518,9.6365 8.3438,11.438 -2.789,2.549 -5.962,4.2185 -8.625,6.1875 -6.171,-1.17 -15.059,-2.2045 -21.031,-1.5625 -1.622,-3.154 -6.2998,-4.9802 -8.9688,-1.5312 -3.475,-1.285 -4.535,-6.183 -4.625,-9.875 4.646,-2.768 9.1842,-5.6498 13.906,-8.3438 z"
           inkscape:connector-curvature="0"
           style="fill:#f3d0ca;fill-rule:evenodd"
           id="path3223" />
        <path
           d="m 383.87,171.16 c 6.107,1.312 6.946,8.445 8.651,15.141 0.876,3.439 1.901,6.561 2.473,9.27 -5.273,-5.541 -3.383,-18.246 -10.815,-21.627 -4.979,0.85 -10.819,2.369 -14.831,-0.617 -7.746,2.877 -14.193,6.092 -20.392,10.502 -2.894,2.059 -4.518,5.15 -8.653,6.182 1.935,-3.895 6.988,-6.768 11.742,-9.889 6.016,-3.953 10.246,-6.949 17.613,-9.271 1.782,-0.559 3.307,1.582 4.943,1.855 2.533,0.424 4.482,-0.475 7.105,0 0.657,-0.581 1.852,-0.624 2.164,-1.546 z"
           inkscape:connector-curvature="0"
           style="clip-rule:evenodd;fill-rule:evenodd"
           id="path3315" />
        <path
           d="m 343.39,191.24 c 0.452,-1.16 0.818,-0.623 2.162,-0.615 7.741,-4.861 16.751,-14.217 28.426,-11.123 2.381,-0.062 3.549,0.617 6.18,0.309 0.834,1.006 1.493,0.705 2.781,1.543 2.299,4.25 4.326,8.766 7.725,12.979 3.321,4.119 3.576,5.057 -1.545,8.961 -4.828,3.68 -10.793,6.949 -19.157,6.486 -2.524,-0.135 -5.561,-0.623 -9.579,-1.543 -9.473,-2.173 -14.474,-7.493 -16.993,-16.997 z m 30.588,-5.559 c 3.754,0.064 3.859,0.225 8.034,0.307 -0.187,-1.666 -1.323,-2.385 -1.854,-3.707 l -5.561,0 c -0.139,1.203 -0.234,2.445 -0.619,3.4 z m 8.344,1.545 c -7.001,0.955 -16.74,0.043 -21.012,-3.709 -4.723,2.693 -9.258,5.574 -13.904,8.342 0.09,3.691 1.16,8.602 4.635,9.887 2.669,-3.449 7.338,-1.607 8.96,1.547 5.972,-0.643 14.841,0.377 21.012,1.547 2.663,-1.969 5.862,-3.633 8.651,-6.182 -4.793,-1.801 -5.449,-7.738 -8.342,-11.432 z m -29.355,15.448 c 1.242,1.332 3.419,1.732 4.942,2.781 1.231,-3.074 -3.169,-5.303 -4.942,-2.781 z m 7.415,3.091 c 2.536,0.346 4.916,0.854 7.725,0.924 -0.102,-0.723 -0.371,-1.271 -0.617,-1.85 -2.782,0.551 -6.339,-1.265 -7.108,0.926 z m 14.524,0.309 c -0.074,-2.088 -3.385,-0.943 -5.252,-1.234 -0.408,2.576 4.278,2.808 5.252,1.234 z m 1.853,0.615 c 1.016,-0.424 2.641,-0.24 3.09,-1.234 -1.398,0.043 -3.307,-0.424 -3.09,1.234 z"
           inkscape:connector-curvature="0"
           style="clip-rule:evenodd;fill-rule:evenodd"
           id="path3321"
           sodipodi:nodetypes="cccccccccccccccccccccccccccccccccccc" />
        <path
           d="m 371.04585,182.0406 c -0.3147,1.076 -0.62249,2.2236 -0.9792,3.2516 -2.61934,-0.56518 -5.23496,-1.15673 -6.62323,-3.092 1.97479,-2.135 4.98795,-0.6416 7.60243,-0.1596 z"
           inkscape:connector-curvature="0"
           style="clip-rule:evenodd;fill:#ffff00;fill-rule:evenodd"
           id="path3323"
           sodipodi:nodetypes="cccc" />
        <path
           d="m 374.6,182.28 5.561,0 c 0.531,1.322 1.668,2.041 1.854,3.707 -4.175,-0.082 -4.28,-0.242 -8.034,-0.307 0.385,-0.955 0.48,-2.197 0.619,-3.4 z"
           inkscape:connector-curvature="0"
           style="clip-rule:evenodd;fill:#ff0000;fill-rule:evenodd"
           id="path3325" />
        <path
           d="m 357.91,205.46 c -1.523,-1.049 -3.7,-1.449 -4.942,-2.781 1.772,-2.522 6.172,-0.293 4.942,2.781 z"
           inkscape:connector-curvature="0"
           style="clip-rule:evenodd;fill:#ffff00;fill-rule:evenodd"
           id="path3331" />
        <path
           d="m 340.61,204.53 0.926,0 c 2.898,4.9 5.543,13.791 13.595,15.143 1.798,0.301 4.257,-0.113 6.8,0 6.107,0.266 11.936,1.533 16.684,0 3.271,-1.057 5.089,-3.688 7.725,-4.637 1.053,-2.162 3.402,-5.643 6.797,-6.486 -1.459,2.787 -3.428,5.82 -6.488,8.957 -5.078,5.211 -12.078,7.123 -21.628,6.18 -6.659,-0.654 -14.422,-1.906 -18.23,-5.561 -3.691,-3.537 -3.949,-8.758 -6.181,-13.596 z"
           inkscape:connector-curvature="0"
           style="clip-rule:evenodd;fill-rule:evenodd"
           id="path3333" />
        <path
           d="m 367.49,204.84 c 0.246,0.578 0.516,1.127 0.617,1.85 -2.809,-0.07 -5.188,-0.578 -7.725,-0.924 0.769,-2.192 4.326,-0.376 7.108,-0.926 z"
           inkscape:connector-curvature="0"
           style="clip-rule:evenodd;fill:#00ff00;fill-rule:evenodd"
           id="path3335" />
        <path
           d="m 369.66,204.84 c 1.867,0.291 5.178,-0.854 5.252,1.234 -0.974,1.574 -5.66,1.342 -5.252,-1.234 z"
           inkscape:connector-curvature="0"
           style="clip-rule:evenodd;fill:#ff0000;fill-rule:evenodd"
           id="path3337" />
        <path
           d="m 379.85,205.46 c -0.449,0.994 -2.074,0.811 -3.09,1.234 -0.217,-1.658 1.692,-1.191 3.09,-1.234 z"
           inkscape:connector-curvature="0"
           style="clip-rule:evenodd;fill:#ff0000;fill-rule:evenodd"
           id="path3339" />
        <path
           d="m 373.89504,182.28591 c -0.004,0.68102 -0.53785,2.28002 -0.89456,3.30802 -0.78198,-0.0217 -1.02495,-0.084 -1.85988,-0.13509 0.21937,-0.6633 0.74296,-2.49601 0.93567,-3.21082 0.87449,0.009 1.81877,0.0379 1.81877,0.0379 z"
           inkscape:connector-curvature="0"
           style="clip-rule:evenodd;fill:#00ff00;fill-rule:evenodd"
           id="path3323-7"
           sodipodi:nodetypes="cccccc" />
      </g>
    </g>
    <g
       id="g4196"
       transform="matrix(0.90421262,0,0,0.90421262,620.47966,541.59661)">
      <g
         transform="translate(-231.07633,-204.2583)"
         id="g4149">
        <path
           inkscape:connector-curvature="0"
           d="m 345.28,226.68 c -108.88,0 -197.14,65.957 -197.14,147.29 0,20.273 5.492,39.574 15.43,57.191 l -38.109,135.4 133.38,-60.25 c 26.098,9.569 55.414,14.922 86.445,14.922 108.89,0 197.12,-65.938 197.12,-147.27 -0.01,-81.33 -88.23,-147.28 -197.12,-147.28 z m 5.34,273.18 c -28.414,0 -55.629,-4.703 -80.941,-13.949 l -6.16,-2.246 c 0,0 -71.234,32.195 -107.92,48.75 10.633,-37.781 30.566,-108.69 30.566,-108.69 l -3.301,-5.824 c -8.848,-15.681 -13.34,-32.267 -13.34,-49.301 0,-72.368 81.246,-131.26 181.1,-131.26 99.858,0 181.09,58.891 181.09,131.26 -0.01,72.38 -81.24,131.26 -181.1,131.26 z"
           id="path4137" />
        <path
           style="fill:#ffffff"
           inkscape:connector-curvature="0"
           d="m 135.55,345.6 -0.207,0.203 -0.73,-2.707 c 0.2,1.05 0.41,1.57 0.94,2.51 z"
           id="path4139" />
        <path
           style="fill:#ffffff"
           inkscape:connector-curvature="0"
           d="m 169.52,368.6 c 0,17.034 4.492,33.62 13.34,49.301 l 3.301,5.824 c 0,0 -19.934,70.905 -30.566,108.69 36.688,-16.555 107.92,-48.75 107.92,-48.75 l 6.16,2.246 c 25.312,9.246 52.527,13.949 80.941,13.949 99.858,0 181.09,-58.888 181.09,-131.26 0,-72.367 -81.23,-131.26 -181.09,-131.26 -99.84,0.01 -181.09,58.9 -181.09,131.26 z"
           id="path4141" />
      </g>
      <text
         sodipodi:linespacing="102%"
         id="text4186"
         y="161.78339"
         x="-32.589001"
         style="font-style:normal;font-weight:normal;font-size:77.33110046px;line-height:101.99999809%;font-family:sans-serif;letter-spacing:0px;word-spacing:0px;fill:#000000;fill-opacity:1;stroke:none;stroke-width:1px;stroke-linecap:butt;stroke-linejoin:miter;stroke-opacity:1"
         xml:space="preserve"><tspan
           style="font-style:normal;font-variant:normal;font-weight:normal;font-stretch:normal;line-height:101.99999809%;font-family:Verdana;-inkscape-font-specification:Verdana"
           y="161.78339"
           x="-32.589001"
           id="tspan4188"
           sodipodi:role="line">Laba</tspan><tspan
           style="font-style:normal;font-variant:normal;font-weight:normal;font-stretch:normal;line-height:101.99999809%;font-family:Verdana;-inkscape-font-specification:Verdana"
           id="tspan4194"
           y="240.6611"
           x="-32.589001"
           sodipodi:role="line">  diena!</tspan></text>
    </g>
  </g>
</svg>
