<?xml version="1.0" encoding="UTF-8" standalone="no"?>
<!-- Created with Inkscape (http://www.inkscape.org/) -->

<svg
   xmlns:dc="http://purl.org/dc/elements/1.1/"
   xmlns:cc="http://creativecommons.org/ns#"
   xmlns:rdf="http://www.w3.org/1999/02/22-rdf-syntax-ns#"
   xmlns:svg="http://www.w3.org/2000/svg"
   xmlns="http://www.w3.org/2000/svg"
   xmlns:sodipodi="http://sodipodi.sourceforge.net/DTD/sodipodi-0.dtd"
   xmlns:inkscape="http://www.inkscape.org/namespaces/inkscape"
   width="512"
   height="512"
   viewBox="0 0 511.99999 511.99999"
   id="svg2"
   version="1.1"
   inkscape:version="0.91 r13725"
   sodipodi:docname="logo_512x512_t.svg"
   inkscape:export-filename="D:\laba-diena-tts\resources\logo_512x512.png"
   inkscape:export-xdpi="90"
   inkscape:export-ydpi="90">
  <defs
     id="defs4" />
  <sodipodi:namedview
     id="base"
     pagecolor="#ffffff"
     bordercolor="#666666"
     borderopacity="1.0"
     inkscape:pageopacity="0.0"
     inkscape:pageshadow="2"
     inkscape:zoom="0.32"
     inkscape:cx="192.3193"
     inkscape:cy="235.33256"
     inkscape:document-units="px"
     inkscape:current-layer="text4186"
     showgrid="false"
     inkscape:window-width="1920"
     inkscape:window-height="1017"
     inkscape:window-x="-8"
     inkscape:window-y="-8"
     inkscape:window-maximized="1"
     units="px" />
  <metadata
     id="metadata7">
    <rdf:RDF>
      <cc:Work
         rdf:about="">
        <dc:format>image/svg+xml</dc:format>
        <dc:type
           rdf:resource="http://purl.org/dc/dcmitype/StillImage" />
        <dc:title></dc:title>
      </cc:Work>
    </rdf:RDF>
  </metadata>
  <g
     inkscape:label="Layer 1"
     inkscape:groupmode="layer"
     id="layer1"
     transform="translate(0,-540.36219)"
     style="opacity:0.98999999">
    <g
       transform="matrix(4.9005123,0,0,4.9005123,-1658.5059,-119.9244)"
       inkscape:label="Layer 1"
       id="layer1-3">
      <g
         id="g3743">
        <path
           inkscape:connector-curvature="0"
           sodipodi:nodetypes="ccccccc"
           d="m 393.74,199.09 c -2.789,2.549 -9.7761,13.683 -12.439,15.652 -13.633,-0.19174 -19.042,-1.6758 -33.002,-2.4627 -3.475,-1.285 -5.8077,-17.685 -5.8977,-21.377 4.646,-2.768 16.253,-10.699 20.975,-13.393 7.5588,-1.1798 13.049,0.1724 19.749,-0.33161 3.9232,2.6648 8.6486,17.286 10.615,21.912 z"
           style="clip-rule:evenodd;fill:#5b012c;fill-rule:evenodd"
           id="path3327" />
        <path
           d="m 368.94,172.16 c -0.48275,3.7e-4 -0.9635,0.20025 -1.5,0.84375 -1.072,1.287 -10.927,5.1495 -12,6.4375 -1.073,1.287 -5.3768,3.8692 -7.0938,5.1562 -1.717,1.287 -6,3.6562 -6,3.6562 l -1.2812,1.0625 c 0,0 -0.86825,6.6438 -0.65625,9.2188 0.217,2.574 2.1372,10.526 2.7812,11.812 0.644,1.287 2.584,6.8472 6.875,8.7812 4.293,1.93 12.866,3.0058 15.656,3.2188 2.789,0.217 11.814,-0.63725 13.531,-1.2812 1.715,-0.643 9.2348,-6.4318 10.094,-7.7188 0.859,-1.287 4.7225,-5.5762 4.9375,-9.6562 0.213,-4.074 1.2278,-5.942 0.71875,-8.125 -0.514,-2.186 -5.875,-16.562 -5.875,-18.062 0,-1.504 -1.516,-3.1998 -2.375,-3.8438 -0.857,-0.643 -1.713,-1.3002 -3,-0.65625 -1.287,0.643 -3.445,0.8495 -5.375,1.0625 -1.932,0.217 -6.8635,-1.07 -7.9375,-1.5 -0.5365,-0.215 -1.0172,-0.40662 -1.5,-0.40625 z m -7.625,11.375 c 4.271,3.752 13.999,4.6425 21,3.6875 2.894,3.694 3.5518,9.6365 8.3438,11.438 -2.789,2.549 -5.962,4.2185 -8.625,6.1875 -6.171,-1.17 -15.059,-2.2045 -21.031,-1.5625 -1.622,-3.154 -6.2998,-4.9802 -8.9688,-1.5312 -3.475,-1.285 -4.535,-6.183 -4.625,-9.875 4.646,-2.768 9.1842,-5.6498 13.906,-8.3438 z"
           inkscape:connector-curvature="0"
           style="fill:#f3d0ca;fill-rule:evenodd"
           id="path3223" />
        <path
           d="m 383.87,171.16 c 6.107,1.312 6.946,8.445 8.651,15.141 0.876,3.439 1.901,6.561 2.473,9.27 -5.273,-5.541 -3.383,-18.246 -10.815,-21.627 -4.979,0.85 -10.819,2.369 -14.831,-0.617 -7.746,2.877 -14.193,6.092 -20.392,10.502 -2.894,2.059 -4.518,5.15 -8.653,6.182 1.935,-3.895 6.988,-6.768 11.742,-9.889 6.016,-3.953 10.246,-6.949 17.613,-9.271 1.782,-0.559 3.307,1.582 4.943,1.855 2.533,0.424 4.482,-0.475 7.105,0 0.657,-0.581 1.852,-0.624 2.164,-1.546 z"
           inkscape:connector-curvature="0"
           style="clip-rule:evenodd;fill-rule:evenodd"
           id="path3315" />
        <path
           d="m 343.39,191.24 c 0.452,-1.16 0.818,-0.623 2.162,-0.615 7.741,-4.861 16.751,-14.217 28.426,-11.123 2.381,-0.062 3.549,0.617 6.18,0.309 0.834,1.006 1.493,0.705 2.781,1.543 2.299,4.25 4.326,8.766 7.725,12.979 3.321,4.119 3.576,5.057 -1.545,8.961 -4.828,3.68 -10.793,6.949 -19.157,6.486 -2.524,-0.135 -5.561,-0.623 -9.579,-1.543 -9.473,-2.173 -14.474,-7.493 -16.993,-16.997 z m 30.588,-5.559 c 3.754,0.064 3.859,0.225 8.034,0.307 -0.187,-1.666 -1.323,-2.385 -1.854,-3.707 l -5.561,0 c -0.139,1.203 -0.234,2.445 -0.619,3.4 z m 8.344,1.545 c -7.001,0.955 -16.74,0.043 -21.012,-3.709 -4.723,2.693 -9.258,5.574 -13.904,8.342 0.09,3.691 1.16,8.602 4.635,9.887 2.669,-3.449 7.338,-1.607 8.96,1.547 5.972,-0.643 14.841,0.377 21.012,1.547 2.663,-1.969 5.862,-3.633 8.651,-6.182 -4.793,-1.801 -5.449,-7.738 -8.342,-11.432 z m -29.355,15.448 c 1.242,1.332 3.419,1.732 4.942,2.781 1.231,-3.074 -3.169,-5.303 -4.942,-2.781 z m 7.415,3.091 c 2.536,0.346 4.916,0.854 7.725,0.924 -0.102,-0.723 -0.371,-1.271 -0.617,-1.85 -2.782,0.551 -6.339,-1.265 -7.108,0.926 z m 14.524,0.309 c -0.074,-2.088 -3.385,-0.943 -5.252,-1.234 -0.408,2.576 4.278,2.808 5.252,1.234 z m 1.853,0.615 c 1.016,-0.424 2.641,-0.24 3.09,-1.234 -1.398,0.043 -3.307,-0.424 -3.09,1.234 z"
           inkscape:connector-curvature="0"
           style="clip-rule:evenodd;fill-rule:evenodd"
           id="path3321"
           sodipodi:nodetypes="cccccccccccccccccccccccccccccccccccc" />
        <path
           d="m 371.04585,182.0406 c -0.3147,1.076 -0.62249,2.2236 -0.9792,3.2516 -2.61934,-0.56518 -5.23496,-1.15673 -6.62323,-3.092 1.97479,-2.135 4.98795,-0.6416 7.60243,-0.1596 z"
           inkscape:connector-curvature="0"
           style="clip-rule:evenodd;fill:#ffff00;fill-rule:evenodd"
           id="path3323"
           sodipodi:nodetypes="cccc" />
        <path
           d="m 374.6,182.28 5.561,0 c 0.531,1.322 1.668,2.041 1.854,3.707 -4.175,-0.082 -4.28,-0.242 -8.034,-0.307 0.385,-0.955 0.48,-2.197 0.619,-3.4 z"
           inkscape:connector-curvature="0"
           style="clip-rule:evenodd;fill:#ff0000;fill-rule:evenodd"
           id="path3325" />
        <path
           d="m 357.91,205.46 c -1.523,-1.049 -3.7,-1.449 -4.942,-2.781 1.772,-2.522 6.172,-0.293 4.942,2.781 z"
           inkscape:connector-curvature="0"
           style="clip-rule:evenodd;fill:#ffff00;fill-rule:evenodd"
           id="path3331" />
        <path
           d="m 340.61,204.53 0.926,0 c 2.898,4.9 5.543,13.791 13.595,15.143 1.798,0.301 4.257,-0.113 6.8,0 6.107,0.266 11.936,1.533 16.684,0 3.271,-1.057 5.089,-3.688 7.725,-4.637 1.053,-2.162 3.402,-5.643 6.797,-6.486 -1.459,2.787 -3.428,5.82 -6.488,8.957 -5.078,5.211 -12.078,7.123 -21.628,6.18 -6.659,-0.654 -14.422,-1.906 -18.23,-5.561 -3.691,-3.537 -3.949,-8.758 -6.181,-13.596 z"
           inkscape:connector-curvature="0"
           style="clip-rule:evenodd;fill-rule:evenodd"
           id="path3333" />
        <path
           d="m 367.49,204.84 c 0.246,0.578 0.516,1.127 0.617,1.85 -2.809,-0.07 -5.188,-0.578 -7.725,-0.924 0.769,-2.192 4.326,-0.376 7.108,-0.926 z"
           inkscape:connector-curvature="0"
           style="clip-rule:evenodd;fill:#00ff00;fill-rule:evenodd"
           id="path3335" />
        <path
           d="m 369.66,204.84 c 1.867,0.291 5.178,-0.854 5.252,1.234 -0.974,1.574 -5.66,1.342 -5.252,-1.234 z"
           inkscape:connector-curvature="0"
           style="clip-rule:evenodd;fill:#ff0000;fill-rule:evenodd"
           id="path3337" />
        <path
           d="m 379.85,205.46 c -0.449,0.994 -2.074,0.811 -3.09,1.234 -0.217,-1.658 1.692,-1.191 3.09,-1.234 z"
           inkscape:connector-curvature="0"
           style="clip-rule:evenodd;fill:#ff0000;fill-rule:evenodd"
           id="path3339" />
        <path
           d="m 373.89504,182.28591 c -0.004,0.68102 -0.53785,2.28002 -0.89456,3.30802 -0.78198,-0.0217 -1.02495,-0.084 -1.85988,-0.13509 0.21937,-0.6633 0.74296,-2.49601 0.93567,-3.21082 0.87449,0.009 1.81877,0.0379 1.81877,0.0379 z"
           inkscape:connector-curvature="0"
           style="clip-rule:evenodd;fill:#00ff00;fill-rule:evenodd"
           id="path3323-7"
           sodipodi:nodetypes="cccccc" />
      </g>
    </g>
    <g
       id="g4196"
       transform="matrix(0.67657812,0,0,0.67657812,292.39124,598.81301)">
      <g
         transform="translate(-231.07633,-204.2583)"
         id="g4149">
        <path
           inkscape:connector-curvature="0"
           d="m 345.28,226.68 c -108.88,0 -197.14,65.957 -197.14,147.29 0,20.273 5.492,39.574 15.43,57.191 l -38.109,135.4 133.38,-60.25 c 26.098,9.569 55.414,14.922 86.445,14.922 108.89,0 197.12,-65.938 197.12,-147.27 -0.01,-81.33 -88.23,-147.28 -197.12,-147.28 z m 5.34,273.18 c -28.414,0 -55.629,-4.703 -80.941,-13.949 l -6.16,-2.246 c 0,0 -71.234,32.195 -107.92,48.75 10.633,-37.781 30.566,-108.69 30.566,-108.69 l -3.301,-5.824 c -8.848,-15.681 -13.34,-32.267 -13.34,-49.301 0,-72.368 81.246,-131.26 181.1,-131.26 99.858,0 181.09,58.891 181.09,131.26 -0.01,72.38 -81.24,131.26 -181.1,131.26 z"
           id="path4137" />
        <path
           style="fill:#ffffff"
           inkscape:connector-curvature="0"
           d="m 135.55,345.6 -0.207,0.203 -0.73,-2.707 c 0.2,1.05 0.41,1.57 0.94,2.51 z"
           id="path4139" />
        <path
           style="fill:#ffffff"
           inkscape:connector-curvature="0"
           d="m 169.52,368.6 c 0,17.034 4.492,33.62 13.34,49.301 l 3.301,5.824 c 0,0 -19.934,70.905 -30.566,108.69 36.688,-16.555 107.92,-48.75 107.92,-48.75 l 6.16,2.246 c 25.312,9.246 52.527,13.949 80.941,13.949 99.858,0 181.09,-58.888 181.09,-131.26 0,-72.367 -81.23,-131.26 -181.09,-131.26 -99.84,0.01 -181.09,58.9 -181.09,131.26 z"
           id="path4141" />
      </g>
      <g
         style="font-style:normal;font-weight:normal;font-size:77.33110046px;line-height:101.99999809%;font-family:sans-serif;letter-spacing:0px;word-spacing:0px;fill:#000000;fill-opacity:1;stroke:none;stroke-width:1px;stroke-linecap:butt;stroke-linejoin:miter;stroke-opacity:1"
         id="text4186">
        <path
           d="m 10.53215,161.78339 -35.569285,0 0,-56.22364 7.476346,0 0,49.57799 28.092939,0 0,6.64565 z"
           style="font-style:normal;font-variant:normal;font-weight:normal;font-stretch:normal;line-height:101.99999809%;font-family:Verdana;-inkscape-font-specification:Verdana"
           id="path4811" />
        <path
           d="m 50.217201,161.78339 -7.060994,0 0,-4.49336 q -0.943983,0.6419 -2.567634,1.81244 -1.585892,1.13278 -3.096265,1.81245 -1.774688,0.86847 -4.078007,1.43486 -2.303319,0.60415 -5.399584,0.60415 -5.701658,0 -9.666387,-3.77594 -3.964729,-3.77593 -3.964729,-9.62863 0,-4.79543 2.039003,-7.74066 2.076763,-2.98298 5.890455,-4.68215 3.851451,-1.69917 9.251035,-2.30332 5.399584,-0.60415 11.592113,-0.90623 l 0,-1.09502 q 0,-2.41659 -0.868464,-4.00249 -0.830705,-1.58589 -2.416597,-2.49211 -1.510373,-0.86847 -3.624895,-1.17054 -2.114523,-0.30207 -4.417842,-0.30207 -2.79419,0 -6.230288,0.75518 -3.436099,0.71743 -7.098754,2.11452 l -0.377593,0 0,-7.21203 q 2.076763,-0.56639 6.003733,-1.24606 3.92697,-0.67966 7.740662,-0.67966 4.4556,0 7.740662,0.75518 3.32282,0.71743 5.739417,2.49212 2.378838,1.73693 3.624896,4.49336 1.246057,2.75643 1.246057,6.83444 l 0,28.62157 z m -7.060994,-10.38382 0,-11.74315 q -3.247302,0.1888 -7.665143,0.56639 -4.380082,0.37759 -6.947716,1.09502 -3.058505,0.86847 -4.946472,2.71867 -1.887966,1.81245 -1.887966,5.02199 0,3.6249 2.190041,5.47511 2.190041,1.81244 6.683401,1.81244 3.738173,0 6.834438,-1.43485 3.096265,-1.47261 5.739417,-3.51162 z"
           style="font-style:normal;font-variant:normal;font-weight:normal;font-stretch:normal;line-height:101.99999809%;font-family:Verdana;-inkscape-font-specification:Verdana"
           id="path4813" />
        <path
           d="m 101.07902,140.37385 q 0,5.2863 -1.510376,9.51535 -1.472614,4.22904 -4.002489,7.09875 -2.680912,2.98299 -5.890455,4.49336 -3.209542,1.47262 -7.060994,1.47262 -3.587136,0 -6.268048,-0.86847 -2.680912,-0.8307 -5.286305,-2.26556 l -0.453112,1.96349 -6.645642,0 0,-58.75352 7.098754,0 0,20.99419 q 2.982986,-2.45436 6.343566,-4.00249 3.36058,-1.58589 7.551866,-1.58589 7.476346,0 11.78091,5.73942 4.342325,5.73941 4.342325,16.19875 z m -7.325312,0.18879 q 0,-7.55186 -2.492116,-11.44107 -2.492115,-3.92697 -8.042736,-3.92697 -3.096265,0 -6.268049,1.35933 -3.171783,1.32158 -5.890454,3.4361 l 0,24.16597 q 3.020746,1.35934 5.173027,1.88797 2.190041,0.52863 4.946472,0.52863 5.890455,0 9.213276,-3.85145 3.36058,-3.88921 3.36058,-12.15851 z"
           style="font-style:normal;font-variant:normal;font-weight:normal;font-stretch:normal;line-height:101.99999809%;font-family:Verdana;-inkscape-font-specification:Verdana"
           id="path4815" />
        <path
           d="m 144.91759,161.78339 -7.061,0 0,-4.49336 q -0.94398,0.6419 -2.56763,1.81244 -1.58589,1.13278 -3.09627,1.81245 -1.77468,0.86847 -4.078,1.43486 -2.30332,0.60415 -5.39959,0.60415 -5.70165,0 -9.66638,-3.77594 -3.96473,-3.77593 -3.96473,-9.62863 0,-4.79543 2.039,-7.74066 2.07676,-2.98298 5.89046,-4.68215 3.85145,-1.69917 9.25103,-2.30332 5.39958,-0.60415 11.59211,-0.90623 l 0,-1.09502 q 0,-2.41659 -0.86846,-4.00249 -0.83071,-1.58589 -2.4166,-2.49211 -1.51037,-0.86847 -3.62489,-1.17054 -2.11453,-0.30207 -4.41784,-0.30207 -2.79419,0 -6.23029,0.75518 -3.4361,0.71743 -7.09876,2.11452 l -0.37759,0 0,-7.21203 q 2.07676,-0.56639 6.00373,-1.24606 3.92697,-0.67966 7.74066,-0.67966 4.45561,0 7.74067,0.75518 3.32282,0.71743 5.73941,2.49212 2.37884,1.73693 3.6249,4.49336 1.24606,2.75643 1.24606,6.83444 l 0,28.62157 z m -7.061,-10.38382 0,-11.74315 q -3.2473,0.1888 -7.66514,0.56639 -4.38008,0.37759 -6.94772,1.09502 -3.0585,0.86847 -4.94647,2.71867 -1.88796,1.81245 -1.88796,5.02199 0,3.6249 2.19004,5.47511 2.19004,1.81244 6.6834,1.81244 3.73817,0 6.83444,-1.43485 3.09626,-1.47261 5.73941,-3.51162 z"
           style="font-style:normal;font-variant:normal;font-weight:normal;font-stretch:normal;line-height:101.99999809%;font-family:Verdana;-inkscape-font-specification:Verdana"
           id="path4817" />
        <path
           d="m 62.979853,240.66111 -7.098754,0 0,-4.41784 q -3.058505,2.64315 -6.381326,4.11576 -3.322821,1.47262 -7.212031,1.47262 -7.551865,0 -12.007466,-5.81494 -4.417841,-5.81494 -4.417841,-16.12323 0,-5.36183 1.510373,-9.55311 1.548132,-4.19129 4.153526,-7.13651 2.567634,-2.86971 5.965973,-4.38009 3.436099,-1.51037 7.098754,-1.51037 3.322821,0 5.890455,0.71743 2.567634,0.67967 5.399583,2.15228 l 0,-18.27551 7.098754,0 0,58.75351 z m -7.098754,-10.38382 0,-24.20373 q -2.869708,-1.28381 -5.135268,-1.77468 -2.26556,-0.49088 -4.946472,-0.49088 -5.965973,0 -9.288794,4.15353 -3.322821,4.15353 -3.322821,11.78091 0,7.51411 2.567634,11.44108 2.567635,3.88921 8.231534,3.88921 3.020746,0 6.11701,-1.32158 3.096265,-1.35934 5.777177,-3.47386 z"
           style="font-style:normal;font-variant:normal;font-weight:normal;font-stretch:normal;line-height:101.99999809%;font-family:Verdana;-inkscape-font-specification:Verdana"
           id="path4819" />
        <path
           d="m 84.578188,191.42295 -8.004978,0 0,-7.36307 8.004978,0 0,7.36307 z m -0.453112,49.23816 -7.098754,0 0,-42.17717 7.098754,0 0,42.17717 z"
           style="font-style:normal;font-variant:normal;font-weight:normal;font-stretch:normal;line-height:101.99999809%;font-family:Verdana;-inkscape-font-specification:Verdana"
           id="path4821" />
        <path
           d="m 133.24996,220.30883 -31.07593,0 q 0,3.88921 1.17054,6.79668 1.17054,2.86971 3.20955,4.71991 1.96348,1.81245 4.64439,2.71868 2.71868,0.90622 5.96598,0.90622 4.30456,0 8.64688,-1.69917 4.38008,-1.73693 6.23029,-3.39834 l 0.3776,0 0,7.74066 q -3.58714,1.51038 -7.32531,2.52988 -3.73818,1.0195 -7.85394,1.0195 -10.4971,0 -16.38755,-5.6639 -5.890457,-5.70166 -5.890457,-16.16099 0,-10.34606 5.626137,-16.42531 5.6639,-6.07925 14.87718,-6.07925 8.53361,0 13.14024,4.98423 4.6444,4.98423 4.6444,14.15975 l 0,3.85145 z M 126.34,214.87149 q -0.0378,-5.58838 -2.83195,-8.64689 -2.75643,-3.0585 -8.42033,-3.0585 -5.70165,0 -9.09999,3.36058 -3.36058,3.36058 -3.8137,8.34481 l 24.16597,0 z"
           style="font-style:normal;font-variant:normal;font-weight:normal;font-stretch:normal;line-height:101.99999809%;font-family:Verdana;-inkscape-font-specification:Verdana"
           id="path4823" />
        <path
           d="m 179.27858,240.66111 -7.09875,0 0,-24.01493 q 0,-2.90747 -0.33983,-5.43735 -0.33984,-2.56763 -1.24606,-4.00249 -0.94398,-1.58589 -2.71867,-2.34107 -1.77469,-0.79295 -4.60664,-0.79295 -2.90747,0 -6.07925,1.43485 -3.17179,1.43486 -6.07925,3.66266 l 0,31.49128 -7.09876,0 0,-42.17717 7.09876,0 0,4.68216 q 3.32282,-2.75643 6.87219,-4.30457 3.54938,-1.54813 7.28755,-1.54813 6.83444,0 10.42158,4.11577 3.58713,4.11576 3.58713,11.85643 l 0,27.37551 z"
           style="font-style:normal;font-variant:normal;font-weight:normal;font-stretch:normal;line-height:101.99999809%;font-family:Verdana;-inkscape-font-specification:Verdana"
           id="path4825" />
        <path
           d="m 225.72255,240.66111 -7.06099,0 0,-4.49336 q -0.94399,0.64191 -2.56764,1.81245 -1.58589,1.13277 -3.09626,1.81244 -1.77469,0.86847 -4.07801,1.43486 -2.30332,0.60415 -5.39958,0.60415 -5.70166,0 -9.66639,-3.77594 -3.96473,-3.77593 -3.96473,-9.62862 0,-4.79544 2.039,-7.74067 2.07677,-2.98298 5.89046,-4.68215 3.85145,-1.69917 9.25103,-2.30332 5.39959,-0.60415 11.59212,-0.90623 l 0,-1.09502 q 0,-2.41659 -0.86847,-4.00248 -0.8307,-1.5859 -2.4166,-2.49212 -1.51037,-0.86846 -3.62489,-1.17054 -2.11452,-0.30207 -4.41784,-0.30207 -2.79419,0 -6.23029,0.75518 -3.4361,0.71743 -7.09875,2.11452 l -0.3776,0 0,-7.21203 q 2.07677,-0.56639 6.00374,-1.24605 3.92697,-0.67967 7.74066,-0.67967 4.4556,0 7.74066,0.75518 3.32282,0.71743 5.73942,2.49212 2.37883,1.73693 3.62489,4.49336 1.24606,2.75643 1.24606,6.83444 l 0,28.62157 z m -7.06099,-10.38382 0,-11.74315 q -3.24731,0.1888 -7.66515,0.56639 -4.38008,0.3776 -6.94771,1.09502 -3.05851,0.86847 -4.94648,2.71867 -1.88796,1.81245 -1.88796,5.02199 0,3.6249 2.19004,5.47511 2.19004,1.81244 6.6834,1.81244 3.73817,0 6.83444,-1.43485 3.09626,-1.47261 5.73942,-3.51162 z"
           style="font-style:normal;font-variant:normal;font-weight:normal;font-stretch:normal;line-height:101.99999809%;font-family:Verdana;-inkscape-font-specification:Verdana"
           id="path4827" />
        <path
           d="m 251.92752,184.43747 -0.98175,40.74231 -6.41908,0 -1.05726,-40.74231 8.45809,0 z m -0.3776,56.22364 -7.7029,0 0,-7.96722 7.7029,0 0,7.96722 z"
           style="font-style:normal;font-variant:normal;font-weight:normal;font-stretch:normal;line-height:101.99999809%;font-family:Verdana;-inkscape-font-specification:Verdana"
           id="path4829" />
      </g>
    </g>
  </g>
</svg>
